<?xml version="1.0" ?><!DOCTYPE svg  PUBLIC '-//W3C//DTD SVG 1.1//EN'  'http://www.w3.org/Graphics/SVG/1.1/DTD/svg11.dtd'><svg enable-background="new 0 0 512 512" height="512px" version="1.1" viewBox="0 0 512 512" width="512px" xml:space="preserve" xmlns="http://www.w3.org/2000/svg" xmlns:xlink="http://www.w3.org/1999/xlink"><g id="Layer_2"><circle cx="257.379" cy="255.754" fill="#417B64" r="220.538"/><path d="M452.712,255.753c0,107.876-87.453,195.335-195.332,195.335c-107.878,0-195.334-87.459-195.334-195.335   c0-107.879,87.456-195.335,195.334-195.335C365.259,60.418,452.712,147.874,452.712,255.753z" fill="#FFFFFF"/><circle cx="257.379" cy="255.754" fill="#417B64" r="182.731"/><path d="M369.333,186.309c-8.233,3.655-17.082,6.123-26.38,7.233c9.482-5.686,16.768-14.688,20.195-25.414   c-8.873,5.264-18.706,9.085-29.167,11.147c-8.381-8.932-20.325-14.507-33.53-14.507c-25.377,0-45.941,20.565-45.941,45.936   c0,3.603,0.403,7.107,1.188,10.47c-38.179-1.914-72.026-20.205-94.686-47.997c-3.954,6.784-6.218,14.673-6.218,23.094   c0,15.938,8.107,30.001,20.436,38.237c-7.532-0.24-14.614-2.307-20.808-5.747c-0.003,0.194-0.003,0.385-0.003,0.582   c0,22.254,15.833,40.816,36.85,45.043c-3.855,1.052-7.914,1.605-12.101,1.605c-2.963,0-5.84-0.283-8.646-0.824   c5.846,18.251,22.811,31.536,42.914,31.905c-15.725,12.325-35.53,19.667-57.055,19.667c-3.707,0-7.362-0.216-10.956-0.646   c20.328,13.039,44.474,20.645,70.42,20.645c84.495,0,130.708-70.001,130.708-130.705c0-1.991-0.05-3.972-0.136-5.944   C355.389,203.613,363.18,195.524,369.333,186.309z" fill="#FFFFFF"/></g></svg>